<?xml version="1.0" standalone="no"?>
<!DOCTYPE svg PUBLIC "-//W3C//DTD SVG 20010904//EN"
 "http://www.w3.org/TR/2001/REC-SVG-20010904/DTD/svg10.dtd">
<svg version="1.0" xmlns="http://www.w3.org/2000/svg"
 width="200.000000pt" height="200.000000pt" viewBox="0 0 200.000000 200.000000"
 preserveAspectRatio="xMidYMid meet">

<g transform="translate(0.000000,200.000000) scale(0.100000,-0.100000)"
fill="#000000" stroke="none">
<path d="M840 1815 c-160 -32 -307 -111 -426 -229 -468 -469 -226 -1270 425
-1402 110 -22 284 -15 389 15 273 79 494 300 573 573 30 105 37 279 15 389
-91 448 -531 743 -976 654z m475 -215 c5 -9 115 -397 115 -407 0 -3 -258 -133
-264 -133 -2 0 -14 41 -27 90 -13 50 -26 90 -29 90 -6 0 -199 -334 -195 -338
2 -2 143 67 315 153 172 86 314 154 316 152 2 -2 -64 -94 -148 -205 l-153
-201 -277 -141 -277 -141 -150 3 -150 3 287 495 c158 272 300 516 315 543 l28
47 144 0 c89 0 146 -4 150 -10z m224 -812 c34 -128 65 -241 67 -250 5 -17 -7
-18 -145 -18 l-150 0 -26 84 c-44 146 -50 124 71 279 59 75 110 137 114 137 3
0 35 -105 69 -232z"/>
</g>
</svg>
